<svg width="32" height="33" viewBox="0 0 32 33" fill="none" xmlns="http://www.w3.org/2000/svg">
<g clip-path="url(#clip0_2122_1072)">
<path d="M28.0001 32.5H16.0001C15.6465 32.5 15.3073 32.3595 15.0573 32.1095C14.8072 31.8594 14.6667 31.5203 14.6667 31.1667V28.5C14.6667 28.1464 14.8072 27.8072 15.0573 27.5572C15.3073 27.3071 15.6465 27.1667 16.0001 27.1667H28.0001C28.3537 27.1667 28.6928 27.3071 28.9429 27.5572C29.1929 27.8072 29.3334 28.1464 29.3334 28.5V31.1667C29.3334 31.5203 29.1929 31.8594 28.9429 32.1095C28.6928 32.3595 28.3537 32.5 28.0001 32.5Z" fill="#C4B5FD"/>
<path d="M28.0001 0.5H4.00008C3.64646 0.5 3.30732 0.640475 3.05727 0.890523C2.80722 1.14057 2.66675 1.47971 2.66675 1.83333V4.5C2.66675 4.85362 2.80722 5.19276 3.05727 5.44281C3.30732 5.69286 3.64646 5.83333 4.00008 5.83333H28.0001C28.3537 5.83333 28.6928 5.69286 28.9429 5.44281C29.1929 5.19276 29.3334 4.85362 29.3334 4.5V1.83333C29.3334 1.47971 29.1929 1.14057 28.9429 0.890523C28.6928 0.640475 28.3537 0.5 28.0001 0.5Z" fill="#1DB5BE"/>
<path d="M28.0001 8.5H4.00008C3.64646 8.5 3.30732 8.64047 3.05727 8.89052C2.80722 9.14057 2.66675 9.47971 2.66675 9.83333V23.1667C2.66675 23.5203 2.80722 23.8594 3.05727 24.1095C3.30732 24.3595 3.64646 24.5 4.00008 24.5H28.0001C28.3537 24.5 28.6928 24.3595 28.9429 24.1095C29.1929 23.8594 29.3334 23.5203 29.3334 23.1667V9.83333C29.3334 9.47971 29.1929 9.14057 28.9429 8.89052C28.6928 8.64047 28.3537 8.5 28.0001 8.5Z" fill="#7C3AED"/>
</g>
<defs>
<clipPath id="clip0_2122_1072">
<rect width="32" height="32" fill="white" transform="translate(0 0.5)"/>
</clipPath>
</defs>
</svg>
