<svg width="32" height="33" viewBox="0 0 32 33" fill="none" xmlns="http://www.w3.org/2000/svg">
<path d="M6.66658 1.83334H2.66659C2.31296 1.83334 1.97382 1.97382 1.72378 2.22387C1.47373 2.47392 1.33325 2.81305 1.33325 3.16668V29.8333C1.33325 30.187 1.47373 30.5261 1.72378 30.7762C1.97382 31.0262 2.31296 31.1667 2.66659 31.1667H6.66658V1.83334Z" fill="#C4B5FD"/>
<path d="M9.33325 31.1667H22.6666V1.83334H9.33325V31.1667ZM15.9999 25.8333C15.6463 25.8333 15.3072 25.6929 15.0571 25.4428C14.8071 25.1928 14.6666 24.8536 14.6666 24.5C14.6666 24.1464 14.8071 23.8072 15.0571 23.5572C15.3072 23.3071 15.6463 23.1667 15.9999 23.1667C16.3535 23.1667 16.6927 23.3071 16.9427 23.5572C17.1928 23.8072 17.3333 24.1464 17.3333 24.5C17.3333 24.8536 17.1928 25.1928 16.9427 25.4428C16.6927 25.6929 16.3535 25.8333 15.9999 25.8333ZM15.9999 7.16668C16.3535 7.16668 16.6927 7.30715 16.9427 7.5572C17.1928 7.80725 17.3333 8.14639 17.3333 8.50001C17.3333 8.85363 17.1928 9.19277 16.9427 9.44282C16.6927 9.69287 16.3535 9.83334 15.9999 9.83334C15.6463 9.83334 15.3072 9.69287 15.0571 9.44282C14.8071 9.19277 14.6666 8.85363 14.6666 8.50001C14.6666 8.14639 14.8071 7.80725 15.0571 7.5572C15.3072 7.30715 15.6463 7.16668 15.9999 7.16668ZM15.9999 15.1667C16.3535 15.1667 16.6927 15.3072 16.9427 15.5572C17.1928 15.8072 17.3333 16.1464 17.3333 16.5C17.3333 16.8536 17.1928 17.1928 16.9427 17.4428C16.6927 17.6929 16.3535 17.8333 15.9999 17.8333C15.6463 17.8333 15.3072 17.6929 15.0571 17.4428C14.8071 17.1928 14.6666 16.8536 14.6666 16.5C14.6666 16.1464 14.8071 15.8072 15.0571 15.5572C15.3072 15.3072 15.6463 15.1667 15.9999 15.1667Z" fill="#7C3AED"/>
<path d="M29.3333 1.83334H25.3333V31.1667H29.3333C29.6869 31.1667 30.026 31.0262 30.2761 30.7762C30.5261 30.5261 30.6666 30.187 30.6666 29.8333V3.16668C30.6666 2.81305 30.5261 2.47392 30.2761 2.22387C30.026 1.97382 29.6869 1.83334 29.3333 1.83334Z" fill="#1DB5BE"/>
</svg>
